# xmcd
#
# Track frame offsets:
#  150
#  11326
#  30771
#  51333
#  66550
#  81149
#  97649
#  119052
#  133079
#  155603
#  176078
#  190628
#  210160
#  224593
#
# Disc length: 3181 seconds
#
# Revision: 2
# Processed by: cddbd v1.5PL3 Copyright (c) Steve Scherf et al.
# Submitted via: AltoMP3_Maker 3.0
#
DISCID=bb0c6b0e
DTITLE=fenerbahçe - efsane yýldýzlar 15
DYEAR=2004
DGENRE=Country
TTITLE0=Yaþa Fenerbahçe
TTITLE1=Gerçek Þampiyon Fenerbahçe
TTITLE2=Fenerim Doðdu
TTITLE3=Fenerkolik Oldum
TTITLE4=Mehter Marþý
TTITLE5=Efsane Fenerbahçe
TTITLE6=Fenerbahçe 2004
TTITLE7=Samanyolu
TTITLE8=Fenerbahçe
TTITLE9=Þanlý Kanarya
TTITLE10=Ne Mutlu Fenerliyim Diyene
TTITLE11=Þanlýsýn Fenerbahçe
TTITLE12=Caným Fenerim
TTITLE13=Fenerbahçem Coþuyor
EXTD=
EXTT0=
EXTT1=
EXTT2=
EXTT3=
EXTT4=
EXTT5=
EXTT6=
EXTT7=
EXTT8=
EXTT9=
EXTT10=
EXTT11=
EXTT12=
EXTT13=
PLAYORDER=
